HIERARCHY
ROOT Hips
{
	OFFSET 0.000000 0.000000 0.000000
	CHANNELS 6 Xposition Yposition Zposition Xrotation Yrotation Zrotation
	JOINT LeftUpLeg_virtual
	{
		OFFSET 0.000000 0.000000 0.000000
		CHANNELS 3 Xrotation Yrotation Zrotation
		JOINT LeftUpLeg
		{
			OFFSET 13.026900 -6.336304 -1.092800
			CHANNELS 3 Xrotation Yrotation Zrotation
			JOINT LeftLeg
			{
				OFFSET 0.524474 -46.096886 9.782700
				CHANNELS 3 Xrotation Yrotation Zrotation
				JOINT LeftFoot
				{
					OFFSET -0.524474 -53.427422 -12.948200
					CHANNELS 3 Xrotation Yrotation Zrotation
					JOINT LeftToeBase
					{
						OFFSET 0.192200 -14.009700 16.364100
						CHANNELS 3 Xrotation Yrotation Zrotation
						JOINT LeftToe_End
						{
							OFFSET -1.784700 -0.561700 9.474800
							CHANNELS 3 Xrotation Yrotation Zrotation
							End Site
							{
								OFFSET 0 0 0
							}
						}
					}
				}
			}
		}
	}
	JOINT RightUpLeg_virtual
	{
		OFFSET 0.000000 0.000000 0.000000
		CHANNELS 3 Xrotation Yrotation Zrotation
		JOINT RightUpLeg
		{
			OFFSET -12.883000 -6.336304 -1.092800
			CHANNELS 3 Xrotation Yrotation Zrotation
			JOINT RightLeg
			{
				OFFSET -0.524587 -46.096825 9.782800
				CHANNELS 3 Xrotation Yrotation Zrotation
				JOINT RightFoot
				{
					OFFSET 0.524587 -53.427383 -12.948300
					CHANNELS 3 Xrotation Yrotation Zrotation
					JOINT RightToeBase
					{
						OFFSET -0.192200 -14.009700 16.364100
						CHANNELS 3 Xrotation Yrotation Zrotation
						JOINT RightToe_End
						{
							OFFSET 1.784700 -0.561700 9.474800
							CHANNELS 3 Xrotation Yrotation Zrotation
							End Site
							{
								OFFSET 0 0 0
							}
						}
					}
				}
			}
		}
	}
	JOINT Spine_virtual
	{
		OFFSET 0.000000 0.000000 0.000000
		CHANNELS 3 Xrotation Yrotation Zrotation
		JOINT Spine
		{
			OFFSET 0.072000 7.257294 -0.789700
			CHANNELS 3 Xrotation Yrotation Zrotation
			JOINT Spine1
			{
				OFFSET 0.000000 12.508769 -0.658067
				CHANNELS 3 Xrotation Yrotation Zrotation
				JOINT Spine1_split
				{
					OFFSET 0.000000 12.508769 -0.658067
					CHANNELS 3 Xrotation Yrotation Zrotation
					JOINT Spine2
					{
						OFFSET 0.000000 12.508769 -0.658067
						CHANNELS 3 Xrotation Yrotation Zrotation
						JOINT Neck_virtual
						{
							OFFSET 0.000000 0.000000 0.000000
							CHANNELS 3 Xrotation Yrotation Zrotation
							JOINT Neck
							{
								OFFSET 0.000000 14.033295 7.520400
								CHANNELS 3 Xrotation Yrotation Zrotation
								JOINT Head
								{
									OFFSET 0.000000 8.198502 5.703100
									CHANNELS 3 Xrotation Yrotation Zrotation
									JOINT HeadTop_End
									{
										OFFSET 0.000000 17.760803 13.332701
										CHANNELS 3 Xrotation Yrotation Zrotation
										End Site
										{
											OFFSET 0 0 0
										}
									}
								}
							}
						}
						JOINT LeftShoulder_virtual
						{
							OFFSET 0.000000 0.000000 0.000000
							CHANNELS 3 Xrotation Yrotation Zrotation
							JOINT LeftShoulder
							{
								OFFSET 6.292450 5.785301 -0.669000
								CHANNELS 3 Xrotation Yrotation Zrotation
								JOINT LeftShoulder_split
								{
									OFFSET 6.292450 5.785301 -0.669000
									CHANNELS 3 Xrotation Yrotation Zrotation
									JOINT LeftArm
									{
										OFFSET 13.907140 -6.093903 1.965100
										CHANNELS 3 Xrotation Yrotation Zrotation
										JOINT LeftForeArm
										{
											OFFSET 34.140198 0.000000 0.000000
											CHANNELS 3 Xrotation Yrotation Zrotation
											JOINT LeftHand
											{
												OFFSET 40.960209 0.000000 0.000000
												CHANNELS 3 Xrotation Yrotation Zrotation
												End Site
												{
													OFFSET 0 0 0
												}
											}
										}
									}
								}
							}
						}
						JOINT RightShoulder_virtual
						{
							OFFSET 0.000000 0.000000 0.000000
							CHANNELS 3 Xrotation Yrotation Zrotation
							JOINT RightShoulder
							{
								OFFSET -6.292450 5.785301 -0.669000
								CHANNELS 3 Xrotation Yrotation Zrotation
								JOINT RightShoulder_split
								{
									OFFSET -6.292450 5.785301 -0.669000
									CHANNELS 3 Xrotation Yrotation Zrotation
									JOINT RightArm
									{
										OFFSET -13.907140 -6.093903 1.965100
										CHANNELS 3 Xrotation Yrotation Zrotation
										JOINT RightForeArm
										{
											OFFSET -34.140198 0.000000 0.000000
											CHANNELS 3 Xrotation Yrotation Zrotation
											JOINT RightHand
											{
												OFFSET -40.960209 0.000000 0.000000
												CHANNELS 3 Xrotation Yrotation Zrotation
												End Site
												{
													OFFSET 0 0 0
												}
											}
										}
									}
								}
							}
						}
					}
				}
			}
		}
	}
}
MOTION
Frames: 4
Frame Time: 0.03333333
-1.561145 94.453308 -5.631338 0.000000 0.000000 0.000000 7.230403 -56.007613 7.614643 -45.244040 16.492959 27.104224 47.008494 -3.975820 -5.729586 -9.676474 15.521723 -6.678363 -0.537691 1.155346 -0.617420 0.000000 0.000000 0.000000 6.844159 -53.291977 6.866341 -23.357444 -12.385137 -21.766107 53.421000 20.365674 -4.652650 -31.777961 -14.165464 14.948462 -3.081834 6.989609 -8.992613 0.000000 0.000000 0.000000 4.981861 -51.127497 3.151205 7.280294 -2.128625 0.994494 3.980398 4.929069 -1.908970 -0.178604 -0.499646 -0.036227 0.000000 0.000000 0.000000 17.576402 6.805432 -1.654834 -2.445116 14.978502 10.861608 -31.786908 -1.281523 31.859493 0.000000 0.000000 0.000000 12.985551 6.679814 -3.266806 -20.130126 -1.426533 -8.430372 -5.014834 1.235312 -0.918685 18.503570 -20.728707 -10.307625 11.260443 -63.534952 -0.457334 0.000000 0.000000 0.000000 16.274044 5.724608 -5.958359 -21.674717 18.834528 12.053332 -11.100190 -10.122925 -4.626540 -9.180018 -1.318106 49.258324 78.230760 51.552997 -45.009249 0.000000 0.000000 0.000000 
-1.467688 94.458794 -5.548342 0.000000 0.000000 0.000000 7.261460 -56.593178 7.903836 -45.532619 16.615258 27.005188 47.460953 -3.849356 -5.620561 -9.525960 15.474449 -6.705868 -0.567341 1.171123 -0.652612 0.000000 0.000000 0.000000 7.090476 -54.116156 7.212644 -23.544466 -13.017313 -21.775452 53.259319 20.321305 -4.569354 -32.022048 -14.066518 14.367960 -2.605489 6.952973 -8.926413 0.000000 0.000000 0.000000 5.483596 -51.620224 4.067676 6.824706 -2.043631 0.797869 3.828781 4.956210 -1.937050 -0.116043 -0.528871 0.027653 0.000000 0.000000 0.000000 17.695669 6.808263 -1.593322 -1.566600 15.018638 10.588485 -32.091377 -1.577880 32.043218 0.000000 0.000000 0.000000 13.012834 6.748897 -3.253102 -19.818653 -1.811148 -8.094868 -4.817398 0.411649 -1.706422 19.459817 -21.799121 -10.919345 10.516740 -62.985675 -0.362823 0.000000 0.000000 0.000000 16.136260 5.596598 -6.087900 -20.954120 18.574836 12.007142 -9.723686 -9.065385 -3.617715 -9.094030 -1.368122 49.059995 76.687602 51.056187 -43.620013 0.000000 0.000000 0.000000 
-1.465962 94.491631 -5.489168 0.000000 0.000000 0.000000 7.198034 -56.946094 7.998077 -45.893496 16.623586 27.036091 47.716064 -3.714431 -5.499708 -9.457405 15.051609 -6.639317 -0.683106 1.134659 -0.617402 0.000000 0.000000 0.000000 7.305168 -54.796436 7.519351 -23.979505 -13.661461 -21.895665 53.525703 20.371388 -4.551557 -31.977279 -13.857644 14.179828 -3.457089 6.970136 -9.009888 0.000000 0.000000 0.000000 5.489165 -52.043658 4.654700 6.314845 -1.671298 0.640699 3.614381 5.166061 -1.894442 -0.075136 -0.417895 0.064769 0.000000 0.000000 0.000000 17.298919 6.948077 -1.649118 0.101749 14.693026 10.152750 -32.225307 -2.396268 31.572604 0.000000 0.000000 0.000000 12.734145 7.029442 -3.221203 -19.499046 -2.814859 -7.636054 -4.466365 -0.452980 -1.844784 20.483256 -23.752031 -12.094599 10.084032 -59.761737 0.181780 0.000000 0.000000 0.000000 16.162546 5.721822 -6.129738 -19.842273 17.964454 11.027429 -8.474094 -8.088553 -2.691349 -8.882072 -0.899191 48.497304 75.492073 51.463822 -43.088399 0.000000 0.000000 0.000000 
-1.550719 94.509789 -5.506632 0.000000 0.000000 0.000000 7.108073 -56.965472 7.890726 -46.477959 16.448048 27.312072 47.838703 -3.667653 -5.448563 -9.181900 14.245997 -6.828505 -1.175126 1.068911 -0.481596 0.000000 0.000000 0.000000 7.331542 -55.087450 7.630067 -24.533216 -14.228201 -22.069694 53.901346 20.517714 -4.604613 -32.040872 -13.586150 14.128388 -5.024925 6.998675 -9.250246 0.000000 0.000000 0.000000 5.016929 -52.317897 4.803149 6.004958 -1.156509 0.529135 3.410026 5.429305 -1.730561 -0.059143 -0.264254 0.046559 0.000000 0.000000 0.000000 16.546948 7.162821 -1.751674 2.170116 14.082575 9.762543 -32.351348 -3.472084 30.431379 0.000000 0.000000 0.000000 12.240662 7.371418 -3.069108 -19.172423 -4.385748 -7.055165 -4.347875 -1.031173 -2.051377 21.231698 -26.228165 -13.513809 9.601386 -54.533825 0.800485 0.000000 0.000000 0.000000 16.210836 6.011252 -5.978485 -18.312620 17.065031 9.152598 -7.816829 -7.662108 -2.077635 -8.525808 -0.110950 47.904915 74.803685 52.681898 -43.508524 0.000000 0.000000 0.000000 
